# xmcd
#
# Track frame offsets: 
#        150
#        49458
#        134290
#        194448
#
# Disc length: 3290 seconds
#
# Revision: 1
# Processed by: cddbd v1.5.2PL0 Copyright (c) Steve Scherf et al.
# Submitted via: ExactAudioCopy v0.99pb5
#
DISCID=390cd804
DTITLE=Joe Giardullo - Weather
DYEAR=2004
DGENRE=Jazz
TTITLE0=channeling
TTITLE1=weather
TTITLE2=times change
TTITLE3=a love supreme
EXTD=YEAR: 2004
EXTT0=
EXTT1=
EXTT2=
EXTT3=
PLAYORDER=
